<svg id="Capa_1" enable-background="new 0 0 512 512" height="512" viewBox="0 0 512 512" width="512" xmlns="http://www.w3.org/2000/svg"><g><path d="m477.93 256.301c20.397-13.127 33.945-36.013 33.945-62.019 0-40.648-33.07-73.719-73.719-73.719-16.355 0-31.478 5.361-43.719 14.408v-59.752c.001-41.476-33.743-75.219-75.218-75.219-26.295 0-49.467 13.573-62.918 34.07-13.127-20.397-36.013-33.945-62.019-33.945-40.648 0-73.719 33.07-73.719 73.719 0 16.355 5.361 31.478 14.408 43.719h-59.752c-41.476-.001-75.219 33.743-75.219 75.218 0 26.295 13.573 49.467 34.07 62.918-20.397 13.127-33.945 36.013-33.945 62.019 0 40.648 33.07 73.719 73.719 73.719 16.355 0 31.478-5.361 43.719-14.408v59.752c0 41.475 33.743 75.219 75.219 75.219 26.295 0 49.467-13.573 62.918-34.07 13.127 20.397 36.013 33.945 62.019 33.945 40.648 0 73.719-33.07 73.719-73.719 0-16.355-5.361-31.478-14.408-43.719h59.752c41.475 0 75.219-33.743 75.219-75.219-.001-26.294-13.574-49.467-34.071-62.917zm-285.149 225.699c-24.934 0-45.219-20.285-45.219-45.219v-117.562c0-24.934 20.285-45.219 45.219-45.219s45.219 20.285 45.219 45.219v117.562c0 24.934-20.285 45.219-45.219 45.219zm126.438-452c24.934 0 45.219 20.285 45.219 45.219v117.562c0 24.934-20.285 45.219-45.219 45.219s-45.219-20.285-45.219-45.219v-117.562c0-24.934 20.285-45.219 45.219-45.219zm-40.68 226c-9.02 5.824-16.714 13.519-22.539 22.539-5.824-9.02-13.519-16.714-22.539-22.539 9.02-5.824 16.714-13.519 22.539-22.539 5.824 9.02 13.519 16.715 22.539 22.539zm-85.758-108.438c24.934 0 45.219 20.285 45.219 45.219s-20.285 45.219-45.219 45.219h-117.562c-24.934 0-45.219-20.285-45.219-45.219s20.285-45.219 45.219-45.219zm126.438 216.876c-24.934 0-45.219-20.285-45.219-45.219s20.285-45.219 45.219-45.219h117.562c24.934 0 45.219 20.285 45.219 45.219s-20.285 45.219-45.219 45.219zm118.937-213.876c24.106 0 43.719 19.612 43.719 43.719 0 24.106-19.612 43.719-43.719 43.719h-43.719v-43.719c.001-24.106 19.613-43.719 43.719-43.719zm-243.875-120.437c24.106 0 43.719 19.612 43.719 43.719v43.719h-43.719c-24.106 0-43.719-19.612-43.719-43.719s19.613-43.719 43.719-43.719zm-120.437 331.313c-24.107 0-43.719-19.612-43.719-43.719s19.612-43.719 43.719-43.719h43.719v43.719c-.001 24.106-19.613 43.719-43.719 43.719zm243.875 120.437c-24.107 0-43.719-19.612-43.719-43.719v-43.719h43.719c24.106 0 43.719 19.612 43.719 43.719s-19.613 43.719-43.719 43.719z"/></g></svg>